<svg xmlns="http://www.w3.org/2000/svg" version="1.1" xmlns:xlink="http://www.w3.org/1999/xlink" xmlns:svgjs="http://svgjs.com/svgjs" width="100%" height="100%" shape-rendering="auto" viewBox="0 0 200 150"><rect width="15" height="15" x="17.5" y="15" fill="black"></rect><rect width="15" height="15" x="47.5" y="15" fill="black"></rect><rect width="15" height="15" x="77.5" y="15" fill="black"></rect><rect width="15" height="15" x="107.5" y="15" fill="black"></rect><rect width="15" height="15" x="137.5" y="15" fill="black"></rect><rect width="15" height="15" x="167.5" y="15" fill="black"></rect><rect width="15" height="15" x="32.5" y="30" fill="black"></rect><rect width="15" height="15" x="62.5" y="30" fill="black"></rect><rect width="15" height="15" x="92.5" y="30" fill="black"></rect><rect width="15" height="15" x="122.5" y="30" fill="black"></rect><rect width="15" height="15" x="152.5" y="30" fill="black"></rect><rect width="15" height="15" x="17.5" y="45" fill="black"></rect><rect width="15" height="15" x="47.5" y="45" fill="black"></rect><rect width="15" height="15" x="77.5" y="45" fill="black"></rect><rect width="15" height="15" x="107.5" y="45" fill="black"></rect><rect width="15" height="15" x="137.5" y="45" fill="black"></rect><rect width="15" height="15" x="167.5" y="45" fill="black"></rect><rect width="15" height="15" x="32.5" y="60" fill="black"></rect><rect width="15" height="15" x="62.5" y="60" fill="black"></rect><rect width="15" height="15" x="92.5" y="60" fill="black"></rect><rect width="15" height="15" x="122.5" y="60" fill="black"></rect><rect width="15" height="15" x="152.5" y="60" fill="black"></rect><rect width="15" height="15" x="17.5" y="75" fill="black"></rect><rect width="15" height="15" x="47.5" y="75" fill="black"></rect><rect width="15" height="15" x="77.5" y="75" fill="black"></rect><rect width="15" height="15" x="107.5" y="75" fill="black"></rect><rect width="15" height="15" x="137.5" y="75" fill="black"></rect><rect width="15" height="15" x="167.5" y="75" fill="black"></rect><rect width="15" height="15" x="32.5" y="90" fill="black"></rect><rect width="15" height="15" x="62.5" y="90" fill="black"></rect><rect width="15" height="15" x="92.5" y="90" fill="black"></rect><rect width="15" height="15" x="122.5" y="90" fill="black"></rect><rect width="15" height="15" x="152.5" y="90" fill="black"></rect><rect width="15" height="15" x="17.5" y="105" fill="black"></rect><rect width="15" height="15" x="47.5" y="105" fill="black"></rect><rect width="15" height="15" x="77.5" y="105" fill="black"></rect><rect width="15" height="15" x="107.5" y="105" fill="black"></rect><rect width="15" height="15" x="137.5" y="105" fill="black"></rect><rect width="15" height="15" x="167.5" y="105" fill="black"></rect><rect width="15" height="15" x="32.5" y="120" fill="black"></rect><rect width="15" height="15" x="62.5" y="120" fill="black"></rect><rect width="15" height="15" x="92.5" y="120" fill="black"></rect><rect width="15" height="15" x="122.5" y="120" fill="black"></rect><rect width="15" height="15" x="152.5" y="120" fill="black"></rect><path d="M10.820 145.230L10.471 143.887L10.088 143.887L10.701 146L11.012 146L11.414 144.713L11.498 144.355L11.510 144.354L11.598 144.713L12.006 146L12.316 146L12.930 143.887L12.547 143.887L12.215 145.230L12.158 145.516L12.146 145.516L12.086 145.230L11.662 143.887L11.354 143.887L10.932 145.230L10.877 145.486L10.865 145.486ZM13.848 145.230L13.498 143.887L13.115 143.887L13.729 146L14.039 146L14.441 144.713L14.525 144.355L14.537 144.354L14.625 144.713L15.033 146L15.344 146L15.957 143.887L15.574 143.887L15.242 145.230L15.186 145.516L15.174 145.516L15.113 145.230L14.689 143.887L14.381 143.887L13.959 145.230L13.904 145.486L13.893 145.486ZM16.875 145.230L16.525 143.887L16.143 143.887L16.756 146L17.066 146L17.469 144.713L17.553 144.355L17.564 144.354L17.652 144.713L18.061 146L18.371 146L18.984 143.887L18.602 143.887L18.270 145.230L18.213 145.516L18.201 145.516L18.141 145.230L17.717 143.887L17.408 143.887L16.986 145.230L16.932 145.486L16.920 145.486ZM19.539 146L19.539 145.605L19.154 145.605L19.154 146ZM21.049 145.740C20.846 145.740 20.701 145.668 20.615 145.524C20.529 145.381 20.486 145.201 20.486 144.984L20.486 144.902C20.486 144.691 20.530 144.513 20.616 144.368C20.703 144.223 20.847 144.150 21.049 144.150C21.188 144.150 21.303 144.196 21.395 144.286C21.486 144.377 21.531 144.486 21.531 144.615L21.879 144.615L21.883 144.604C21.888 144.391 21.812 144.212 21.655 144.066C21.498 143.921 21.296 143.848 21.049 143.848C20.743 143.848 20.508 143.948 20.345 144.149C20.181 144.351 20.100 144.602 20.100 144.902L20.100 144.984C20.100 145.288 20.181 145.540 20.344 145.740C20.507 145.941 20.742 146.041 21.049 146.041C21.273 146.041 21.469 145.970 21.638 145.829C21.806 145.688 21.887 145.526 21.881 145.344L21.877 145.332L21.531 145.332C21.531 145.447 21.483 145.543 21.386 145.622C21.289 145.701 21.176 145.740 21.049 145.740ZM23.611 146L24.008 146C23.987 145.932 23.973 145.863 23.965 145.793C23.957 145.723 23.953 145.650 23.953 145.574L23.953 144.557C23.953 144.327 23.880 144.152 23.734 144.030C23.589 143.909 23.396 143.848 23.156 143.848C22.914 143.848 22.716 143.911 22.563 144.039C22.410 144.167 22.338 144.307 22.346 144.461L22.350 144.473L22.717 144.473C22.717 144.384 22.756 144.308 22.833 144.245C22.910 144.182 23.011 144.150 23.135 144.150C23.273 144.150 23.380 144.187 23.455 144.259C23.531 144.331 23.568 144.429 23.568 144.553L23.568 144.762L23.150 144.762C22.870 144.762 22.649 144.819 22.485 144.933C22.322 145.047 22.240 145.204 22.240 145.406C22.240 145.604 22.298 145.759 22.413 145.872C22.528 145.985 22.696 146.041 22.916 146.041C23.049 146.041 23.173 146.007 23.288 145.938C23.403 145.870 23.497 145.785 23.568 145.684C23.570 145.733 23.574 145.782 23.581 145.831C23.588 145.880 23.598 145.936 23.611 146ZM22.973 145.719C22.858 145.719 22.771 145.691 22.713 145.637C22.654 145.582 22.625 145.508 22.625 145.414C22.625 145.309 22.672 145.217 22.765 145.139C22.858 145.061 22.982 145.021 23.137 145.021L23.568 145.021L23.568 145.365C23.535 145.458 23.462 145.540 23.350 145.611C23.238 145.683 23.112 145.719 22.973 145.719ZM24.928 146L24.928 142.953L24.543 142.953L24.543 146ZM25.936 146L25.936 143.887L25.551 143.887L25.551 146ZM25.936 143.346L25.936 142.953L25.551 142.953L25.551 143.346ZM28.332 145.023L28.332 144.982C28.332 144.643 28.259 144.368 28.113 144.160C27.967 143.952 27.764 143.848 27.504 143.848C27.372 143.848 27.257 143.872 27.159 143.922C27.061 143.971 26.979 144.043 26.912 144.137L26.912 142.953L26.527 142.953L26.527 146L26.842 146L26.889 145.721C26.956 145.826 27.042 145.906 27.145 145.960C27.247 146.014 27.368 146.041 27.508 146.041C27.764 146.041 27.966 145.948 28.112 145.761C28.259 145.574 28.332 145.328 28.332 145.023ZM27.947 144.982L27.947 145.023C27.947 145.236 27.903 145.406 27.814 145.535C27.726 145.664 27.591 145.729 27.410 145.729C27.288 145.729 27.187 145.699 27.106 145.641C27.026 145.582 26.962 145.501 26.912 145.396L26.912 144.480C26.960 144.383 27.025 144.305 27.106 144.247C27.188 144.189 27.288 144.160 27.406 144.160C27.589 144.160 27.724 144.237 27.813 144.390C27.903 144.543 27.947 144.740 27.947 144.982ZM29.221 146L29.221 145.605L28.836 145.605L28.836 146ZM30.287 146L30.287 143.887L29.902 143.887L29.902 146ZM30.287 143.346L30.287 142.953L29.902 142.953L29.902 143.346ZM30.789 144.924L30.789 144.967C30.789 145.281 30.874 145.538 31.044 145.739C31.214 145.940 31.445 146.041 31.736 146.041C32.028 146.041 32.258 145.941 32.428 145.740C32.597 145.540 32.682 145.282 32.682 144.967L32.682 144.924C32.682 144.610 32.597 144.352 32.427 144.150C32.257 143.949 32.025 143.848 31.732 143.848C31.442 143.848 31.212 143.949 31.043 144.151C30.874 144.354 30.789 144.611 30.789 144.924ZM31.174 144.967L31.174 144.924C31.174 144.702 31.221 144.518 31.315 144.371C31.410 144.224 31.549 144.150 31.732 144.150C31.917 144.150 32.058 144.224 32.153 144.371C32.249 144.518 32.297 144.702 32.297 144.924L32.297 144.967C32.297 145.191 32.249 145.376 32.154 145.521C32.059 145.667 31.920 145.740 31.736 145.740C31.550 145.740 31.410 145.667 31.315 145.521C31.221 145.376 31.174 145.191 31.174 144.967ZM34.518 146.527L34.518 143.156L34.209 143.156L34.209 146.527ZM37.824 143.898C37.824 143.648 37.745 143.455 37.587 143.319C37.429 143.183 37.225 143.115 36.975 143.115C36.721 143.115 36.517 143.183 36.362 143.319C36.208 143.455 36.131 143.648 36.131 143.898C36.131 144.047 36.171 144.177 36.252 144.288C36.333 144.399 36.444 144.482 36.586 144.537C36.422 144.594 36.292 144.684 36.195 144.807C36.099 144.929 36.051 145.070 36.051 145.230C36.051 145.493 36.136 145.694 36.306 145.833C36.476 145.972 36.700 146.041 36.979 146.041C37.252 146.041 37.474 145.972 37.646 145.833C37.817 145.694 37.902 145.493 37.902 145.230C37.902 145.070 37.853 144.929 37.755 144.807C37.657 144.684 37.525 144.594 37.361 144.537C37.503 144.482 37.616 144.399 37.699 144.288C37.783 144.177 37.824 144.047 37.824 143.898ZM37.520 145.223C37.520 145.383 37.469 145.509 37.369 145.602C37.269 145.694 37.139 145.740 36.979 145.740C36.814 145.740 36.683 145.694 36.584 145.603C36.485 145.511 36.436 145.384 36.436 145.223C36.436 145.066 36.485 144.938 36.585 144.838C36.685 144.738 36.814 144.688 36.975 144.688C37.132 144.688 37.262 144.738 37.365 144.838C37.468 144.938 37.520 145.066 37.520 145.223ZM37.439 143.906C37.439 144.051 37.396 144.167 37.311 144.254C37.225 144.341 37.114 144.385 36.979 144.385C36.840 144.385 36.729 144.341 36.644 144.254C36.558 144.167 36.516 144.051 36.516 143.906C36.516 143.759 36.558 143.641 36.643 143.552C36.727 143.463 36.838 143.418 36.975 143.418C37.109 143.418 37.220 143.464 37.308 143.557C37.396 143.649 37.439 143.766 37.439 143.906ZM39.100 144.666L38.656 143.887L38.213 143.887L38.898 144.932L38.193 146L38.639 146L39.107 145.201L39.576 146L40.018 146L39.313 144.932L39.998 143.887L39.549 143.887ZM41.445 146L41.445 143.156L40.479 143.262L40.479 143.539L41.061 143.531L41.061 146ZM43.697 146L43.697 143.156L42.730 143.262L42.730 143.539L43.313 143.531L43.313 146ZM46.264 146.527L46.264 143.156L45.955 143.156L45.955 146.527ZM49.959 145.090L49.590 145.090C49.590 145.293 49.531 145.452 49.414 145.567C49.297 145.683 49.132 145.740 48.918 145.740C48.703 145.740 48.532 145.654 48.404 145.480C48.277 145.307 48.213 145.091 48.213 144.832L48.213 144.322C48.213 144.066 48.277 143.851 48.404 143.678C48.532 143.505 48.703 143.418 48.918 143.418C49.132 143.418 49.297 143.476 49.414 143.592C49.531 143.708 49.590 143.865 49.590 144.064L49.959 144.064L49.963 144.053C49.968 143.770 49.876 143.543 49.686 143.372C49.495 143.201 49.240 143.115 48.918 143.115C48.596 143.115 48.334 143.229 48.132 143.458C47.929 143.687 47.828 143.976 47.828 144.326L47.828 144.832C47.828 145.182 47.929 145.471 48.132 145.699C48.334 145.927 48.596 146.041 48.918 146.041C49.234 146.041 49.489 145.951 49.682 145.771C49.874 145.592 49.968 145.368 49.963 145.102ZM50.795 144.170L50.795 142.953L50.410 142.953L50.410 146L50.795 146L50.795 144.439C50.851 144.354 50.922 144.285 51.009 144.235C51.095 144.185 51.192 144.160 51.299 144.160C51.447 144.160 51.559 144.202 51.634 144.285C51.709 144.368 51.746 144.497 51.746 144.672L51.746 146L52.131 146L52.131 144.676C52.131 144.395 52.068 144.186 51.942 144.051C51.817 143.915 51.641 143.848 51.416 143.848C51.287 143.848 51.170 143.876 51.063 143.933C50.957 143.989 50.868 144.068 50.795 144.170ZM53.561 146.041C53.736 146.041 53.886 146.016 54.010 145.967C54.133 145.917 54.233 145.855 54.309 145.781L54.158 145.531C54.087 145.596 54.002 145.647 53.903 145.685C53.805 145.722 53.691 145.740 53.561 145.740C53.382 145.740 53.243 145.675 53.145 145.544C53.046 145.413 52.994 145.246 52.990 145.043L52.996 145.033L54.367 145.033L54.367 144.793C54.367 144.507 54.294 144.277 54.148 144.105C54.003 143.934 53.787 143.848 53.502 143.848C53.257 143.848 53.045 143.948 52.866 144.147C52.687 144.347 52.598 144.598 52.598 144.898L52.598 144.984C52.598 145.297 52.685 145.551 52.858 145.747C53.032 145.943 53.266 146.041 53.561 146.041ZM53.502 144.150C53.661 144.150 53.781 144.201 53.861 144.303C53.942 144.404 53.982 144.531 53.982 144.682L53.982 144.732L53.008 144.732L53.004 144.723C53.025 144.559 53.081 144.422 53.172 144.313C53.263 144.205 53.373 144.150 53.502 144.150ZM55.658 145.740C55.455 145.740 55.311 145.668 55.225 145.524C55.139 145.381 55.096 145.201 55.096 144.984L55.096 144.902C55.096 144.691 55.139 144.513 55.226 144.368C55.312 144.223 55.456 144.150 55.658 144.150C55.798 144.150 55.913 144.196 56.004 144.286C56.095 144.377 56.141 144.486 56.141 144.615L56.488 144.615L56.492 144.604C56.497 144.391 56.422 144.212 56.265 144.066C56.108 143.921 55.906 143.848 55.658 143.848C55.352 143.848 55.118 143.948 54.954 144.149C54.791 144.351 54.709 144.602 54.709 144.902L54.709 144.984C54.709 145.288 54.790 145.540 54.953 145.740C55.116 145.941 55.351 146.041 55.658 146.041C55.882 146.041 56.078 145.970 56.247 145.829C56.416 145.688 56.497 145.526 56.490 145.344L56.486 145.332L56.141 145.332C56.141 145.447 56.092 145.543 55.995 145.622C55.898 145.701 55.786 145.740 55.658 145.740ZM57.559 145.025L58.244 146L58.697 146L57.871 144.848L58.594 143.887L58.133 143.887L57.555 144.719L57.309 144.719L57.309 142.953L56.924 142.953L56.924 146L57.309 146L57.309 145.025ZM59.811 146.041C59.986 146.041 60.136 146.016 60.260 145.967C60.383 145.917 60.483 145.855 60.559 145.781L60.408 145.531C60.337 145.596 60.252 145.647 60.153 145.685C60.055 145.722 59.941 145.740 59.811 145.740C59.632 145.740 59.493 145.675 59.395 145.544C59.296 145.413 59.244 145.246 59.240 145.043L59.246 145.033L60.617 145.033L60.617 144.793C60.617 144.507 60.544 144.277 60.398 144.105C60.253 143.934 60.037 143.848 59.752 143.848C59.507 143.848 59.295 143.948 59.116 144.147C58.937 144.347 58.848 144.598 58.848 144.898L58.848 144.984C58.848 145.297 58.935 145.551 59.108 145.747C59.282 145.943 59.516 146.041 59.811 146.041ZM59.752 144.150C59.911 144.150 60.031 144.201 60.111 144.303C60.192 144.404 60.232 144.531 60.232 144.682L60.232 144.732L59.258 144.732L59.254 144.723C59.275 144.559 59.331 144.422 59.422 144.313C59.513 144.205 59.623 144.150 59.752 144.150ZM62.049 144.227L62.102 143.869C62.085 143.864 62.063 143.859 62.037 143.854C62.011 143.850 61.984 143.848 61.955 143.848C61.840 143.848 61.739 143.878 61.651 143.939C61.563 144.001 61.490 144.086 61.430 144.195L61.393 143.887L61.049 143.887L61.049 146L61.434 146L61.434 144.490C61.471 144.403 61.525 144.335 61.595 144.287C61.664 144.239 61.750 144.215 61.852 144.215ZM65.035 145.283C65.035 145.424 64.979 145.535 64.865 145.617C64.752 145.699 64.598 145.740 64.404 145.740C64.206 145.740 64.040 145.693 63.906 145.598C63.772 145.503 63.705 145.364 63.705 145.182L63.338 145.182L63.334 145.193C63.327 145.451 63.433 145.657 63.651 145.811C63.869 145.964 64.120 146.041 64.404 146.041C64.706 146.041 64.951 145.971 65.139 145.832C65.326 145.693 65.420 145.508 65.420 145.279C65.420 145.066 65.342 144.887 65.186 144.742C65.029 144.598 64.801 144.488 64.502 144.414C64.253 144.352 64.074 144.279 63.963 144.196C63.852 144.114 63.797 144.010 63.797 143.887C63.797 143.747 63.848 143.634 63.950 143.548C64.052 143.461 64.199 143.418 64.391 143.418C64.596 143.418 64.754 143.469 64.864 143.572C64.974 143.675 65.029 143.810 65.029 143.977L65.396 143.977L65.400 143.965C65.407 143.740 65.318 143.542 65.134 143.371C64.950 143.201 64.702 143.115 64.391 143.115C64.102 143.115 63.866 143.189 63.685 143.338C63.503 143.486 63.412 143.671 63.412 143.893C63.412 144.104 63.496 144.279 63.665 144.418C63.834 144.557 64.068 144.663 64.369 144.734C64.618 144.794 64.791 144.868 64.889 144.956C64.986 145.044 65.035 145.153 65.035 145.283ZM66.324 146L66.324 143.887L65.939 143.887L65.939 146ZM66.324 143.346L66.324 142.953L65.939 142.953L65.939 143.346ZM67.279 145.699L68.434 144.148L68.434 143.887L66.834 143.887L66.834 144.191L67.963 144.191L66.820 145.730L66.820 146L68.500 146L68.500 145.699ZM69.773 146.041C69.949 146.041 70.099 146.016 70.223 145.967C70.346 145.917 70.446 145.855 70.521 145.781L70.371 145.531C70.299 145.596 70.215 145.647 70.116 145.685C70.018 145.722 69.904 145.740 69.773 145.740C69.595 145.740 69.456 145.675 69.357 145.544C69.258 145.413 69.207 145.246 69.203 145.043L69.209 145.033L70.580 145.033L70.580 144.793C70.580 144.507 70.507 144.277 70.361 144.105C70.215 143.934 70 143.848 69.715 143.848C69.470 143.848 69.258 143.948 69.079 144.147C68.900 144.347 68.811 144.598 68.811 144.898L68.811 144.984C68.811 145.297 68.897 145.551 69.071 145.747C69.245 145.943 69.479 146.041 69.773 146.041ZM69.715 144.150C69.874 144.150 69.993 144.201 70.074 144.303C70.155 144.404 70.195 144.531 70.195 144.682L70.195 144.732L69.221 144.732L69.217 144.723C69.238 144.559 69.294 144.422 69.385 144.313C69.476 144.205 69.586 144.150 69.715 144.150ZM71.432 146L71.432 145.605L71.047 145.605L71.047 146ZM71.432 144.289L71.432 143.895L71.047 143.895L71.047 144.289ZM74.066 146L74.066 143.156L73.100 143.262L73.100 143.539L73.682 143.531L73.682 146ZM75.330 144.717L75.650 144.750C75.682 144.656 75.731 144.587 75.799 144.541C75.867 144.495 75.976 144.473 76.127 144.473C76.287 144.473 76.413 144.531 76.504 144.648C76.595 144.766 76.641 144.915 76.641 145.098C76.641 145.297 76.596 145.454 76.506 145.568C76.416 145.683 76.290 145.740 76.127 145.740C75.985 145.740 75.869 145.698 75.780 145.612C75.691 145.527 75.646 145.407 75.646 145.252L75.299 145.252L75.295 145.264C75.288 145.519 75.365 145.712 75.525 145.844C75.686 145.975 75.886 146.041 76.127 146.041C76.420 146.041 76.643 145.954 76.796 145.781C76.949 145.608 77.025 145.379 77.025 145.094C77.025 144.801 76.950 144.568 76.800 144.395C76.649 144.221 76.443 144.136 76.182 144.139C76.085 144.141 76.000 144.157 75.927 144.187C75.853 144.216 75.786 144.253 75.727 144.297L75.820 143.498L76.918 143.498L76.918 143.156L75.494 143.156ZM78.857 143.887L78.514 143.887L78.514 146L78.898 146L78.898 144.436C78.939 144.348 78.997 144.281 79.072 144.232C79.148 144.184 79.244 144.160 79.361 144.160C79.499 144.160 79.605 144.206 79.679 144.298C79.752 144.390 79.789 144.535 79.789 144.732L79.789 146L80.176 146L80.176 144.658L80.176 144.643C80.190 144.503 80.238 144.388 80.319 144.297C80.401 144.206 80.507 144.160 80.639 144.160C80.781 144.160 80.887 144.203 80.959 144.290C81.031 144.377 81.066 144.524 81.066 144.732L81.066 146L81.451 146L81.451 144.736C81.451 144.439 81.389 144.217 81.264 144.069C81.139 143.922 80.969 143.848 80.754 143.848C80.608 143.848 80.480 143.883 80.371 143.953C80.262 144.023 80.174 144.118 80.107 144.238C80.057 144.108 79.981 144.010 79.880 143.945C79.779 143.880 79.658 143.848 79.518 143.848C79.377 143.848 79.254 143.875 79.147 143.931C79.041 143.986 78.954 144.064 78.885 144.164ZM82.354 143.887L82.010 143.887L82.010 146L82.395 146L82.395 144.436C82.435 144.348 82.493 144.281 82.568 144.232C82.644 144.184 82.740 144.160 82.857 144.160C82.995 144.160 83.101 144.206 83.175 144.298C83.248 144.390 83.285 144.535 83.285 144.732L83.285 146L83.672 146L83.672 144.658L83.672 144.643C83.686 144.503 83.734 144.388 83.815 144.297C83.897 144.206 84.003 144.160 84.135 144.160C84.277 144.160 84.383 144.203 84.455 144.290C84.527 144.377 84.563 144.524 84.563 144.732L84.563 146L84.947 146L84.947 144.736C84.947 144.439 84.885 144.217 84.760 144.069C84.635 143.922 84.465 143.848 84.250 143.848C84.104 143.848 83.977 143.883 83.867 143.953C83.758 144.023 83.670 144.118 83.604 144.238C83.553 144.108 83.477 144.010 83.376 143.945C83.275 143.880 83.154 143.848 83.014 143.848C82.873 143.848 82.750 143.875 82.644 143.931C82.537 143.986 82.450 144.064 82.381 144.164ZM85.926 146L85.926 145.605L85.541 145.605L85.541 146Z" fill="black"></path><rect width="200" height="150" fill="none" stroke-width="1" stroke="#000000"></rect></svg>